<mxfile host="65bd71144e">
    <diagram id="trgEF9YWX16VHLN3AiFZ" name="Page-1">
        <mxGraphModel dx="1086" dy="743" grid="1" gridSize="10" guides="1" tooltips="1" connect="1" arrows="1" fold="1" page="1" pageScale="1" pageWidth="827" pageHeight="1169" math="0" shadow="0">
            <root>
                <mxCell id="0"/>
                <mxCell id="1" parent="0"/>
                <mxCell id="10" value="Number of iterations" style="swimlane;fontSize=24;" vertex="1" parent="1">
                    <mxGeometry x="180" y="60" width="440" height="370" as="geometry"/>
                </mxCell>
                <mxCell id="11" value="Enter your integer below:" style="text;html=1;align=center;verticalAlign=middle;resizable=0;points=[];autosize=1;strokeColor=none;fillColor=none;fontSize=24;" vertex="1" parent="10">
                    <mxGeometry x="-5" y="90" width="290" height="40" as="geometry"/>
                </mxCell>
                <mxCell id="12" value="&lt;font style=&quot;font-size: 12px;&quot;&gt;Number&lt;/font&gt;..." style="text;html=1;align=center;verticalAlign=middle;resizable=0;points=[];autosize=1;strokeColor=none;fillColor=none;fontSize=24;" vertex="1" parent="10">
                    <mxGeometry x="6" y="130" width="90" height="40" as="geometry"/>
                </mxCell>
                <mxCell id="14" value="" style="line;strokeWidth=2;html=1;fontSize=12;" vertex="1" parent="10">
                    <mxGeometry x="6" y="160" width="160" height="10" as="geometry"/>
                </mxCell>
                <mxCell id="15" value="Calculate:" style="rounded=1;whiteSpace=wrap;html=1;fontSize=12;" vertex="1" parent="10">
                    <mxGeometry x="8" y="180" width="88" height="30" as="geometry"/>
                </mxCell>
            </root>
        </mxGraphModel>
    </diagram>
</mxfile>